M48
;DRILL file {KiCad 4.0.7-e2-6376~58~ubuntu16.04.1} date Wed Jan 24 19:36:07 2018
;FORMAT={-:-/ absolute / inch / decimal}
FMAT,2
INCH,TZ
T1C0.012
T2C0.040
%
G90
G05
M72
T1
X5.2867Y-4.6642
X5.303Y-4.6924
X5.317Y-4.723
X5.331Y-4.7514
X5.345Y-4.7801
X5.3979Y-4.6971
X5.5239Y-5.3661
X5.5438Y-5.3911
X5.5654Y-5.4141
X5.5683Y-5.0916
X5.5692Y-4.7851
X5.5919Y-5.1141
T2
X5.24Y-2.614
X5.24Y-2.714
X5.24Y-2.814
X5.24Y-2.914
X5.24Y-3.014
X5.24Y-3.114
X5.24Y-3.214
X5.24Y-3.314
X5.24Y-3.414
X5.24Y-3.514
X5.24Y-3.614
X5.24Y-3.714
X5.24Y-3.814
X5.24Y-3.914
X5.24Y-4.014
X5.24Y-4.114
X5.24Y-4.214
X5.24Y-4.314
X5.24Y-4.414
X5.24Y-4.514
X5.24Y-4.614
X5.24Y-4.714
X5.24Y-4.814
X5.24Y-4.914
X5.24Y-5.014
X5.24Y-5.114
X5.24Y-5.214
X5.24Y-5.314
X5.24Y-5.414
X5.24Y-5.514
X5.24Y-5.614
X5.24Y-5.714
X5.4411Y-2.4938
X5.4411Y-2.5922
X5.4411Y-2.6906
X5.4411Y-2.7891
X5.4411Y-3.0922
X5.4411Y-3.1906
X5.4411Y-3.2891
X5.4411Y-3.3875
X5.4411Y-3.4859
X5.4411Y-3.5843
X5.4411Y-3.6828
X5.4411Y-3.7812
X5.4411Y-3.8796
X5.4411Y-3.978
X5.4411Y-4.0765
X5.4411Y-4.1749
X5.4411Y-4.2733
X5.4411Y-4.3717
X5.4411Y-4.4702
X5.4411Y-4.5686
X5.4411Y-4.667
X5.4411Y-4.7654
X5.4411Y-4.8639
X5.4411Y-4.9623
X5.4411Y-5.0607
X5.4411Y-5.1591
X5.4411Y-5.2576
X5.4411Y-5.5607
X5.4411Y-5.6591
X5.4411Y-5.7576
X5.4411Y-5.856
X5.638Y-2.4938
X5.638Y-2.5922
X5.638Y-2.6906
X5.638Y-2.7891
X5.638Y-3.0922
X5.638Y-3.1906
X5.638Y-3.2891
X5.638Y-3.3875
X5.638Y-3.4859
X5.638Y-3.5843
X5.638Y-3.6828
X5.638Y-3.7812
X5.638Y-3.8796
X5.638Y-3.978
X5.638Y-4.0765
X5.638Y-4.1749
X5.638Y-4.2733
X5.638Y-4.3717
X5.638Y-4.4702
X5.638Y-4.5686
X5.638Y-4.667
X5.638Y-4.7654
X5.638Y-4.8639
X5.638Y-4.9623
X5.638Y-5.0607
X5.638Y-5.1591
X5.638Y-5.2576
X5.638Y-5.5607
X5.638Y-5.6591
X5.638Y-5.7576
X5.638Y-5.856
X5.84Y-2.614
X5.84Y-2.714
X5.84Y-2.814
X5.84Y-2.914
X5.84Y-3.014
X5.84Y-3.114
X5.84Y-3.214
X5.84Y-3.314
X5.84Y-3.414
X5.84Y-3.514
X5.84Y-3.614
X5.84Y-3.714
X5.84Y-3.814
X5.84Y-3.914
X5.84Y-4.014
X5.84Y-4.114
X5.84Y-4.214
X5.84Y-4.314
X5.84Y-4.414
X5.84Y-4.514
X5.84Y-4.614
X5.84Y-4.714
X5.84Y-4.814
X5.84Y-4.914
X5.84Y-5.014
X5.84Y-5.114
X5.84Y-5.214
X5.84Y-5.314
X5.84Y-5.414
X5.84Y-5.514
X5.84Y-5.614
X5.84Y-5.714
T0
M30
