G04 #@! TF.FileFunction,Legend,Top*
%FSLAX46Y46*%
G04 Gerber Fmt 4.6, Leading zero omitted, Abs format (unit mm)*
G04 Created by KiCad (PCBNEW 4.0.7-e2-6376~58~ubuntu16.04.1) date Wed Jan 24 19:35:02 2018*
%MOMM*%
%LPD*%
G01*
G04 APERTURE LIST*
%ADD10C,0.100000*%
%ADD11C,0.203200*%
%ADD12C,0.222250*%
%ADD13C,0.300000*%
%ADD14C,0.177800*%
%ADD15C,0.010000*%
G04 APERTURE END LIST*
D10*
D11*
X146500907Y-134309609D02*
X145611907Y-134309609D01*
X146500907Y-133928609D02*
X146035240Y-133928609D01*
X145950573Y-133970943D01*
X145908240Y-134055609D01*
X145908240Y-134182609D01*
X145950573Y-134267276D01*
X145992907Y-134309609D01*
X145908240Y-133632276D02*
X145908240Y-133293610D01*
X145611907Y-133505276D02*
X146373907Y-133505276D01*
X146458573Y-133462943D01*
X146500907Y-133378276D01*
X146500907Y-133293610D01*
X145908240Y-133124276D02*
X145908240Y-132785610D01*
X145611907Y-132997276D02*
X146373907Y-132997276D01*
X146458573Y-132954943D01*
X146500907Y-132870276D01*
X146500907Y-132785610D01*
X145908240Y-132489276D02*
X146797240Y-132489276D01*
X145950573Y-132489276D02*
X145908240Y-132404610D01*
X145908240Y-132235276D01*
X145950573Y-132150610D01*
X145992907Y-132108276D01*
X146077573Y-132065943D01*
X146331573Y-132065943D01*
X146416240Y-132108276D01*
X146458573Y-132150610D01*
X146500907Y-132235276D01*
X146500907Y-132404610D01*
X146458573Y-132489276D01*
X146458573Y-131727277D02*
X146500907Y-131642610D01*
X146500907Y-131473277D01*
X146458573Y-131388610D01*
X146373907Y-131346277D01*
X146331573Y-131346277D01*
X146246907Y-131388610D01*
X146204573Y-131473277D01*
X146204573Y-131600277D01*
X146162240Y-131684943D01*
X146077573Y-131727277D01*
X146035240Y-131727277D01*
X145950573Y-131684943D01*
X145908240Y-131600277D01*
X145908240Y-131473277D01*
X145950573Y-131388610D01*
X146416240Y-130965276D02*
X146458573Y-130922943D01*
X146500907Y-130965276D01*
X146458573Y-131007610D01*
X146416240Y-130965276D01*
X146500907Y-130965276D01*
X145950573Y-130965276D02*
X145992907Y-130922943D01*
X146035240Y-130965276D01*
X145992907Y-131007610D01*
X145950573Y-130965276D01*
X146035240Y-130965276D01*
X145569573Y-129906943D02*
X146712573Y-130668943D01*
X145569573Y-128975610D02*
X146712573Y-129737610D01*
X145908240Y-128298277D02*
X146627907Y-128298277D01*
X146712573Y-128340611D01*
X146754907Y-128382944D01*
X146797240Y-128467611D01*
X146797240Y-128594611D01*
X146754907Y-128679277D01*
X146458573Y-128298277D02*
X146500907Y-128382944D01*
X146500907Y-128552277D01*
X146458573Y-128636944D01*
X146416240Y-128679277D01*
X146331573Y-128721611D01*
X146077573Y-128721611D01*
X145992907Y-128679277D01*
X145950573Y-128636944D01*
X145908240Y-128552277D01*
X145908240Y-128382944D01*
X145950573Y-128298277D01*
X146500907Y-127874944D02*
X145908240Y-127874944D01*
X145611907Y-127874944D02*
X145654240Y-127917278D01*
X145696573Y-127874944D01*
X145654240Y-127832611D01*
X145611907Y-127874944D01*
X145696573Y-127874944D01*
X145908240Y-127578611D02*
X145908240Y-127239945D01*
X145611907Y-127451611D02*
X146373907Y-127451611D01*
X146458573Y-127409278D01*
X146500907Y-127324611D01*
X146500907Y-127239945D01*
X146500907Y-126943611D02*
X145611907Y-126943611D01*
X146500907Y-126562611D02*
X146035240Y-126562611D01*
X145950573Y-126604945D01*
X145908240Y-126689611D01*
X145908240Y-126816611D01*
X145950573Y-126901278D01*
X145992907Y-126943611D01*
X145908240Y-125758278D02*
X146500907Y-125758278D01*
X145908240Y-126139278D02*
X146373907Y-126139278D01*
X146458573Y-126096945D01*
X146500907Y-126012278D01*
X146500907Y-125885278D01*
X146458573Y-125800612D01*
X146416240Y-125758278D01*
X146500907Y-125334945D02*
X145611907Y-125334945D01*
X145950573Y-125334945D02*
X145908240Y-125250279D01*
X145908240Y-125080945D01*
X145950573Y-124996279D01*
X145992907Y-124953945D01*
X146077573Y-124911612D01*
X146331573Y-124911612D01*
X146416240Y-124953945D01*
X146458573Y-124996279D01*
X146500907Y-125080945D01*
X146500907Y-125250279D01*
X146458573Y-125334945D01*
X146416240Y-124530612D02*
X146458573Y-124488279D01*
X146500907Y-124530612D01*
X146458573Y-124572946D01*
X146416240Y-124530612D01*
X146500907Y-124530612D01*
X146458573Y-123726279D02*
X146500907Y-123810946D01*
X146500907Y-123980279D01*
X146458573Y-124064946D01*
X146416240Y-124107279D01*
X146331573Y-124149613D01*
X146077573Y-124149613D01*
X145992907Y-124107279D01*
X145950573Y-124064946D01*
X145908240Y-123980279D01*
X145908240Y-123810946D01*
X145950573Y-123726279D01*
X146500907Y-123218279D02*
X146458573Y-123302946D01*
X146416240Y-123345279D01*
X146331573Y-123387613D01*
X146077573Y-123387613D01*
X145992907Y-123345279D01*
X145950573Y-123302946D01*
X145908240Y-123218279D01*
X145908240Y-123091279D01*
X145950573Y-123006613D01*
X145992907Y-122964279D01*
X146077573Y-122921946D01*
X146331573Y-122921946D01*
X146416240Y-122964279D01*
X146458573Y-123006613D01*
X146500907Y-123091279D01*
X146500907Y-123218279D01*
X146500907Y-122540946D02*
X145908240Y-122540946D01*
X145992907Y-122540946D02*
X145950573Y-122498613D01*
X145908240Y-122413946D01*
X145908240Y-122286946D01*
X145950573Y-122202280D01*
X146035240Y-122159946D01*
X146500907Y-122159946D01*
X146035240Y-122159946D02*
X145950573Y-122117613D01*
X145908240Y-122032946D01*
X145908240Y-121905946D01*
X145950573Y-121821280D01*
X146035240Y-121778946D01*
X146500907Y-121778946D01*
X145569573Y-120720613D02*
X146712573Y-121482613D01*
X146500907Y-120043280D02*
X145611907Y-120043280D01*
X146458573Y-120043280D02*
X146500907Y-120127947D01*
X146500907Y-120297280D01*
X146458573Y-120381947D01*
X146416240Y-120424280D01*
X146331573Y-120466614D01*
X146077573Y-120466614D01*
X145992907Y-120424280D01*
X145950573Y-120381947D01*
X145908240Y-120297280D01*
X145908240Y-120127947D01*
X145950573Y-120043280D01*
X146500907Y-119619947D02*
X145611907Y-119619947D01*
X145950573Y-119619947D02*
X145908240Y-119535281D01*
X145908240Y-119365947D01*
X145950573Y-119281281D01*
X145992907Y-119238947D01*
X146077573Y-119196614D01*
X146331573Y-119196614D01*
X146416240Y-119238947D01*
X146458573Y-119281281D01*
X146500907Y-119365947D01*
X146500907Y-119535281D01*
X146458573Y-119619947D01*
X146162240Y-118815614D02*
X146162240Y-118138281D01*
X146458573Y-117376281D02*
X146500907Y-117460947D01*
X146500907Y-117630281D01*
X146458573Y-117714947D01*
X146373907Y-117757281D01*
X146035240Y-117757281D01*
X145950573Y-117714947D01*
X145908240Y-117630281D01*
X145908240Y-117460947D01*
X145950573Y-117376281D01*
X146035240Y-117333947D01*
X146119907Y-117333947D01*
X146204573Y-117757281D01*
X146500907Y-116825947D02*
X146458573Y-116910614D01*
X146373907Y-116952947D01*
X145611907Y-116952947D01*
X146458573Y-116148614D02*
X146500907Y-116233280D01*
X146500907Y-116402614D01*
X146458573Y-116487280D01*
X146373907Y-116529614D01*
X146035240Y-116529614D01*
X145950573Y-116487280D01*
X145908240Y-116402614D01*
X145908240Y-116233280D01*
X145950573Y-116148614D01*
X146035240Y-116106280D01*
X146119907Y-116106280D01*
X146204573Y-116529614D01*
X146458573Y-115344280D02*
X146500907Y-115428947D01*
X146500907Y-115598280D01*
X146458573Y-115682947D01*
X146416240Y-115725280D01*
X146331573Y-115767614D01*
X146077573Y-115767614D01*
X145992907Y-115725280D01*
X145950573Y-115682947D01*
X145908240Y-115598280D01*
X145908240Y-115428947D01*
X145950573Y-115344280D01*
X145908240Y-115090280D02*
X145908240Y-114751614D01*
X145611907Y-114963280D02*
X146373907Y-114963280D01*
X146458573Y-114920947D01*
X146500907Y-114836280D01*
X146500907Y-114751614D01*
X146500907Y-114455280D02*
X145908240Y-114455280D01*
X146077573Y-114455280D02*
X145992907Y-114412947D01*
X145950573Y-114370614D01*
X145908240Y-114285947D01*
X145908240Y-114201280D01*
X146500907Y-113777947D02*
X146458573Y-113862614D01*
X146416240Y-113904947D01*
X146331573Y-113947281D01*
X146077573Y-113947281D01*
X145992907Y-113904947D01*
X145950573Y-113862614D01*
X145908240Y-113777947D01*
X145908240Y-113650947D01*
X145950573Y-113566281D01*
X145992907Y-113523947D01*
X146077573Y-113481614D01*
X146331573Y-113481614D01*
X146416240Y-113523947D01*
X146458573Y-113566281D01*
X146500907Y-113650947D01*
X146500907Y-113777947D01*
X145908240Y-113100614D02*
X146500907Y-113100614D01*
X145992907Y-113100614D02*
X145950573Y-113058281D01*
X145908240Y-112973614D01*
X145908240Y-112846614D01*
X145950573Y-112761948D01*
X146035240Y-112719614D01*
X146500907Y-112719614D01*
X146500907Y-112296281D02*
X145908240Y-112296281D01*
X145611907Y-112296281D02*
X145654240Y-112338615D01*
X145696573Y-112296281D01*
X145654240Y-112253948D01*
X145611907Y-112296281D01*
X145696573Y-112296281D01*
X146458573Y-111491948D02*
X146500907Y-111576615D01*
X146500907Y-111745948D01*
X146458573Y-111830615D01*
X146416240Y-111872948D01*
X146331573Y-111915282D01*
X146077573Y-111915282D01*
X145992907Y-111872948D01*
X145950573Y-111830615D01*
X145908240Y-111745948D01*
X145908240Y-111576615D01*
X145950573Y-111491948D01*
X146458573Y-111153282D02*
X146500907Y-111068615D01*
X146500907Y-110899282D01*
X146458573Y-110814615D01*
X146373907Y-110772282D01*
X146331573Y-110772282D01*
X146246907Y-110814615D01*
X146204573Y-110899282D01*
X146204573Y-111026282D01*
X146162240Y-111110948D01*
X146077573Y-111153282D01*
X146035240Y-111153282D01*
X145950573Y-111110948D01*
X145908240Y-111026282D01*
X145908240Y-110899282D01*
X145950573Y-110814615D01*
X145569573Y-109756281D02*
X146712573Y-110518281D01*
X145908240Y-109078948D02*
X146500907Y-109078948D01*
X145908240Y-109459948D02*
X146373907Y-109459948D01*
X146458573Y-109417615D01*
X146500907Y-109332948D01*
X146500907Y-109205948D01*
X146458573Y-109121282D01*
X146416240Y-109078948D01*
X146500907Y-108655615D02*
X145908240Y-108655615D01*
X145992907Y-108655615D02*
X145950573Y-108613282D01*
X145908240Y-108528615D01*
X145908240Y-108401615D01*
X145950573Y-108316949D01*
X146035240Y-108274615D01*
X146500907Y-108274615D01*
X146035240Y-108274615D02*
X145950573Y-108232282D01*
X145908240Y-108147615D01*
X145908240Y-108020615D01*
X145950573Y-107935949D01*
X146035240Y-107893615D01*
X146500907Y-107893615D01*
X146500907Y-107089282D02*
X145611907Y-107089282D01*
X146458573Y-107089282D02*
X146500907Y-107173949D01*
X146500907Y-107343282D01*
X146458573Y-107427949D01*
X146416240Y-107470282D01*
X146331573Y-107512616D01*
X146077573Y-107512616D01*
X145992907Y-107470282D01*
X145950573Y-107427949D01*
X145908240Y-107343282D01*
X145908240Y-107173949D01*
X145950573Y-107089282D01*
X146162240Y-106665949D02*
X146162240Y-105988616D01*
X146500907Y-105184282D02*
X146035240Y-105184282D01*
X145950573Y-105226616D01*
X145908240Y-105311282D01*
X145908240Y-105480616D01*
X145950573Y-105565282D01*
X146458573Y-105184282D02*
X146500907Y-105268949D01*
X146500907Y-105480616D01*
X146458573Y-105565282D01*
X146373907Y-105607616D01*
X146289240Y-105607616D01*
X146204573Y-105565282D01*
X146162240Y-105480616D01*
X146162240Y-105268949D01*
X146119907Y-105184282D01*
X146500907Y-104379949D02*
X145611907Y-104379949D01*
X146458573Y-104379949D02*
X146500907Y-104464616D01*
X146500907Y-104633949D01*
X146458573Y-104718616D01*
X146416240Y-104760949D01*
X146331573Y-104803283D01*
X146077573Y-104803283D01*
X145992907Y-104760949D01*
X145950573Y-104718616D01*
X145908240Y-104633949D01*
X145908240Y-104464616D01*
X145950573Y-104379949D01*
X146500907Y-103575616D02*
X146035240Y-103575616D01*
X145950573Y-103617950D01*
X145908240Y-103702616D01*
X145908240Y-103871950D01*
X145950573Y-103956616D01*
X146458573Y-103575616D02*
X146500907Y-103660283D01*
X146500907Y-103871950D01*
X146458573Y-103956616D01*
X146373907Y-103998950D01*
X146289240Y-103998950D01*
X146204573Y-103956616D01*
X146162240Y-103871950D01*
X146162240Y-103660283D01*
X146119907Y-103575616D01*
X145908240Y-103152283D02*
X146797240Y-103152283D01*
X145950573Y-103152283D02*
X145908240Y-103067617D01*
X145908240Y-102898283D01*
X145950573Y-102813617D01*
X145992907Y-102771283D01*
X146077573Y-102728950D01*
X146331573Y-102728950D01*
X146416240Y-102771283D01*
X146458573Y-102813617D01*
X146500907Y-102898283D01*
X146500907Y-103067617D01*
X146458573Y-103152283D01*
X145908240Y-102474950D02*
X145908240Y-102136284D01*
X145611907Y-102347950D02*
X146373907Y-102347950D01*
X146458573Y-102305617D01*
X146500907Y-102220950D01*
X146500907Y-102136284D01*
X146458573Y-101501284D02*
X146500907Y-101585950D01*
X146500907Y-101755284D01*
X146458573Y-101839950D01*
X146373907Y-101882284D01*
X146035240Y-101882284D01*
X145950573Y-101839950D01*
X145908240Y-101755284D01*
X145908240Y-101585950D01*
X145950573Y-101501284D01*
X146035240Y-101458950D01*
X146119907Y-101458950D01*
X146204573Y-101882284D01*
X146500907Y-101077950D02*
X145908240Y-101077950D01*
X146077573Y-101077950D02*
X145992907Y-101035617D01*
X145950573Y-100993284D01*
X145908240Y-100908617D01*
X145908240Y-100823950D01*
X146458573Y-100569951D02*
X146500907Y-100485284D01*
X146500907Y-100315951D01*
X146458573Y-100231284D01*
X146373907Y-100188951D01*
X146331573Y-100188951D01*
X146246907Y-100231284D01*
X146204573Y-100315951D01*
X146204573Y-100442951D01*
X146162240Y-100527617D01*
X146077573Y-100569951D01*
X146035240Y-100569951D01*
X145950573Y-100527617D01*
X145908240Y-100442951D01*
X145908240Y-100315951D01*
X145950573Y-100231284D01*
X146162240Y-99807950D02*
X146162240Y-99130617D01*
X146500907Y-98707283D02*
X145611907Y-98707283D01*
X146162240Y-98622617D02*
X146500907Y-98368617D01*
X145908240Y-98368617D02*
X146246907Y-98707283D01*
X146500907Y-97987616D02*
X145908240Y-97987616D01*
X145611907Y-97987616D02*
X145654240Y-98029950D01*
X145696573Y-97987616D01*
X145654240Y-97945283D01*
X145611907Y-97987616D01*
X145696573Y-97987616D01*
X146458573Y-97183283D02*
X146500907Y-97267950D01*
X146500907Y-97437283D01*
X146458573Y-97521950D01*
X146416240Y-97564283D01*
X146331573Y-97606617D01*
X146077573Y-97606617D01*
X145992907Y-97564283D01*
X145950573Y-97521950D01*
X145908240Y-97437283D01*
X145908240Y-97267950D01*
X145950573Y-97183283D01*
X146500907Y-96421283D02*
X146035240Y-96421283D01*
X145950573Y-96463617D01*
X145908240Y-96548283D01*
X145908240Y-96717617D01*
X145950573Y-96802283D01*
X146458573Y-96421283D02*
X146500907Y-96505950D01*
X146500907Y-96717617D01*
X146458573Y-96802283D01*
X146373907Y-96844617D01*
X146289240Y-96844617D01*
X146204573Y-96802283D01*
X146162240Y-96717617D01*
X146162240Y-96505950D01*
X146119907Y-96421283D01*
X146500907Y-95616950D02*
X145611907Y-95616950D01*
X146458573Y-95616950D02*
X146500907Y-95701617D01*
X146500907Y-95870950D01*
X146458573Y-95955617D01*
X146416240Y-95997950D01*
X146331573Y-96040284D01*
X146077573Y-96040284D01*
X145992907Y-95997950D01*
X145950573Y-95955617D01*
X145908240Y-95870950D01*
X145908240Y-95701617D01*
X145950573Y-95616950D01*
X135604307Y-76414545D02*
X134715307Y-76414545D01*
X135561973Y-76414545D02*
X135604307Y-76499212D01*
X135604307Y-76668545D01*
X135561973Y-76753212D01*
X135519640Y-76795545D01*
X135434973Y-76837879D01*
X135180973Y-76837879D01*
X135096307Y-76795545D01*
X135053973Y-76753212D01*
X135011640Y-76668545D01*
X135011640Y-76499212D01*
X135053973Y-76414545D01*
X135604307Y-75991212D02*
X134715307Y-75991212D01*
X135053973Y-75991212D02*
X135011640Y-75906546D01*
X135011640Y-75737212D01*
X135053973Y-75652546D01*
X135096307Y-75610212D01*
X135180973Y-75567879D01*
X135434973Y-75567879D01*
X135519640Y-75610212D01*
X135561973Y-75652546D01*
X135604307Y-75737212D01*
X135604307Y-75906546D01*
X135561973Y-75991212D01*
X135265640Y-75186879D02*
X135265640Y-74509546D01*
X135561973Y-73747546D02*
X135604307Y-73832212D01*
X135604307Y-74001546D01*
X135561973Y-74086212D01*
X135477307Y-74128546D01*
X135138640Y-74128546D01*
X135053973Y-74086212D01*
X135011640Y-74001546D01*
X135011640Y-73832212D01*
X135053973Y-73747546D01*
X135138640Y-73705212D01*
X135223307Y-73705212D01*
X135307973Y-74128546D01*
X135604307Y-73197212D02*
X135561973Y-73281879D01*
X135477307Y-73324212D01*
X134715307Y-73324212D01*
X135561973Y-72519879D02*
X135604307Y-72604545D01*
X135604307Y-72773879D01*
X135561973Y-72858545D01*
X135477307Y-72900879D01*
X135138640Y-72900879D01*
X135053973Y-72858545D01*
X135011640Y-72773879D01*
X135011640Y-72604545D01*
X135053973Y-72519879D01*
X135138640Y-72477545D01*
X135223307Y-72477545D01*
X135307973Y-72900879D01*
X135561973Y-71715545D02*
X135604307Y-71800212D01*
X135604307Y-71969545D01*
X135561973Y-72054212D01*
X135519640Y-72096545D01*
X135434973Y-72138879D01*
X135180973Y-72138879D01*
X135096307Y-72096545D01*
X135053973Y-72054212D01*
X135011640Y-71969545D01*
X135011640Y-71800212D01*
X135053973Y-71715545D01*
X135011640Y-71461545D02*
X135011640Y-71122879D01*
X134715307Y-71334545D02*
X135477307Y-71334545D01*
X135561973Y-71292212D01*
X135604307Y-71207545D01*
X135604307Y-71122879D01*
X135604307Y-70826545D02*
X135011640Y-70826545D01*
X135180973Y-70826545D02*
X135096307Y-70784212D01*
X135053973Y-70741879D01*
X135011640Y-70657212D01*
X135011640Y-70572545D01*
X135604307Y-70149212D02*
X135561973Y-70233879D01*
X135519640Y-70276212D01*
X135434973Y-70318546D01*
X135180973Y-70318546D01*
X135096307Y-70276212D01*
X135053973Y-70233879D01*
X135011640Y-70149212D01*
X135011640Y-70022212D01*
X135053973Y-69937546D01*
X135096307Y-69895212D01*
X135180973Y-69852879D01*
X135434973Y-69852879D01*
X135519640Y-69895212D01*
X135561973Y-69937546D01*
X135604307Y-70022212D01*
X135604307Y-70149212D01*
X135011640Y-69471879D02*
X135604307Y-69471879D01*
X135096307Y-69471879D02*
X135053973Y-69429546D01*
X135011640Y-69344879D01*
X135011640Y-69217879D01*
X135053973Y-69133213D01*
X135138640Y-69090879D01*
X135604307Y-69090879D01*
X135604307Y-68667546D02*
X135011640Y-68667546D01*
X134715307Y-68667546D02*
X134757640Y-68709880D01*
X134799973Y-68667546D01*
X134757640Y-68625213D01*
X134715307Y-68667546D01*
X134799973Y-68667546D01*
X135561973Y-67863213D02*
X135604307Y-67947880D01*
X135604307Y-68117213D01*
X135561973Y-68201880D01*
X135519640Y-68244213D01*
X135434973Y-68286547D01*
X135180973Y-68286547D01*
X135096307Y-68244213D01*
X135053973Y-68201880D01*
X135011640Y-68117213D01*
X135011640Y-67947880D01*
X135053973Y-67863213D01*
X135561973Y-67524547D02*
X135604307Y-67439880D01*
X135604307Y-67270547D01*
X135561973Y-67185880D01*
X135477307Y-67143547D01*
X135434973Y-67143547D01*
X135350307Y-67185880D01*
X135307973Y-67270547D01*
X135307973Y-67397547D01*
X135265640Y-67482213D01*
X135180973Y-67524547D01*
X135138640Y-67524547D01*
X135053973Y-67482213D01*
X135011640Y-67397547D01*
X135011640Y-67270547D01*
X135053973Y-67185880D01*
X135519640Y-66762546D02*
X135561973Y-66720213D01*
X135604307Y-66762546D01*
X135561973Y-66804880D01*
X135519640Y-66762546D01*
X135604307Y-66762546D01*
X135561973Y-65958213D02*
X135604307Y-66042880D01*
X135604307Y-66212213D01*
X135561973Y-66296880D01*
X135519640Y-66339213D01*
X135434973Y-66381547D01*
X135180973Y-66381547D01*
X135096307Y-66339213D01*
X135053973Y-66296880D01*
X135011640Y-66212213D01*
X135011640Y-66042880D01*
X135053973Y-65958213D01*
X135604307Y-65196213D02*
X135138640Y-65196213D01*
X135053973Y-65238547D01*
X135011640Y-65323213D01*
X135011640Y-65492547D01*
X135053973Y-65577213D01*
X135561973Y-65196213D02*
X135604307Y-65280880D01*
X135604307Y-65492547D01*
X135561973Y-65577213D01*
X135477307Y-65619547D01*
X135392640Y-65619547D01*
X135307973Y-65577213D01*
X135265640Y-65492547D01*
X135265640Y-65280880D01*
X135223307Y-65196213D01*
D12*
X146509373Y-87886880D02*
X146551707Y-87759880D01*
X146551707Y-87548213D01*
X146509373Y-87463546D01*
X146467040Y-87421213D01*
X146382373Y-87378880D01*
X146297707Y-87378880D01*
X146213040Y-87421213D01*
X146170707Y-87463546D01*
X146128373Y-87548213D01*
X146086040Y-87717546D01*
X146043707Y-87802213D01*
X146001373Y-87844546D01*
X145916707Y-87886880D01*
X145832040Y-87886880D01*
X145747373Y-87844546D01*
X145705040Y-87802213D01*
X145662707Y-87717546D01*
X145662707Y-87505880D01*
X145705040Y-87378880D01*
X146551707Y-86997879D02*
X145662707Y-86997879D01*
X146551707Y-86489879D01*
X145662707Y-86489879D01*
X146086040Y-86066546D02*
X146086040Y-85770213D01*
X146551707Y-85643213D02*
X146551707Y-86066546D01*
X145662707Y-86066546D01*
X145662707Y-85643213D01*
X146509373Y-85304547D02*
X146551707Y-85177547D01*
X146551707Y-84965880D01*
X146509373Y-84881213D01*
X146467040Y-84838880D01*
X146382373Y-84796547D01*
X146297707Y-84796547D01*
X146213040Y-84838880D01*
X146170707Y-84881213D01*
X146128373Y-84965880D01*
X146086040Y-85135213D01*
X146043707Y-85219880D01*
X146001373Y-85262213D01*
X145916707Y-85304547D01*
X145832040Y-85304547D01*
X145747373Y-85262213D01*
X145705040Y-85219880D01*
X145662707Y-85135213D01*
X145662707Y-84923547D01*
X145705040Y-84796547D01*
X145662707Y-83738213D02*
X146382373Y-83738213D01*
X146467040Y-83695880D01*
X146509373Y-83653547D01*
X146551707Y-83568880D01*
X146551707Y-83399547D01*
X146509373Y-83314880D01*
X146467040Y-83272547D01*
X146382373Y-83230213D01*
X145662707Y-83230213D01*
X146551707Y-82806880D02*
X145662707Y-82806880D01*
X146297707Y-82510547D01*
X145662707Y-82214214D01*
X146551707Y-82214214D01*
X146551707Y-81790880D02*
X145662707Y-81790880D01*
X145662707Y-81579214D01*
X145705040Y-81452214D01*
X145789707Y-81367547D01*
X145874373Y-81325214D01*
X146043707Y-81282880D01*
X146170707Y-81282880D01*
X146340040Y-81325214D01*
X146424707Y-81367547D01*
X146509373Y-81452214D01*
X146551707Y-81579214D01*
X146551707Y-81790880D01*
X146297707Y-80266881D02*
X146297707Y-79843547D01*
X146551707Y-80351547D02*
X145662707Y-80055214D01*
X146551707Y-79758881D01*
X146551707Y-79081547D02*
X145662707Y-79081547D01*
X146509373Y-79081547D02*
X146551707Y-79166214D01*
X146551707Y-79335547D01*
X146509373Y-79420214D01*
X146467040Y-79462547D01*
X146382373Y-79504881D01*
X146128373Y-79504881D01*
X146043707Y-79462547D01*
X146001373Y-79420214D01*
X145959040Y-79335547D01*
X145959040Y-79166214D01*
X146001373Y-79081547D01*
X146551707Y-78277214D02*
X146086040Y-78277214D01*
X146001373Y-78319548D01*
X145959040Y-78404214D01*
X145959040Y-78573548D01*
X146001373Y-78658214D01*
X146509373Y-78277214D02*
X146551707Y-78361881D01*
X146551707Y-78573548D01*
X146509373Y-78658214D01*
X146424707Y-78700548D01*
X146340040Y-78700548D01*
X146255373Y-78658214D01*
X146213040Y-78573548D01*
X146213040Y-78361881D01*
X146170707Y-78277214D01*
X145959040Y-77853881D02*
X146848040Y-77853881D01*
X146001373Y-77853881D02*
X145959040Y-77769215D01*
X145959040Y-77599881D01*
X146001373Y-77515215D01*
X146043707Y-77472881D01*
X146128373Y-77430548D01*
X146382373Y-77430548D01*
X146467040Y-77472881D01*
X146509373Y-77515215D01*
X146551707Y-77599881D01*
X146551707Y-77769215D01*
X146509373Y-77853881D01*
X145959040Y-77176548D02*
X145959040Y-76837882D01*
X145662707Y-77049548D02*
X146424707Y-77049548D01*
X146509373Y-77007215D01*
X146551707Y-76922548D01*
X146551707Y-76837882D01*
X146509373Y-76202882D02*
X146551707Y-76287548D01*
X146551707Y-76456882D01*
X146509373Y-76541548D01*
X146424707Y-76583882D01*
X146086040Y-76583882D01*
X146001373Y-76541548D01*
X145959040Y-76456882D01*
X145959040Y-76287548D01*
X146001373Y-76202882D01*
X146086040Y-76160548D01*
X146170707Y-76160548D01*
X146255373Y-76583882D01*
X146551707Y-75779548D02*
X145959040Y-75779548D01*
X146128373Y-75779548D02*
X146043707Y-75737215D01*
X146001373Y-75694882D01*
X145959040Y-75610215D01*
X145959040Y-75525548D01*
X145662707Y-74382549D02*
X145662707Y-74297882D01*
X145705040Y-74213216D01*
X145747373Y-74170882D01*
X145832040Y-74128549D01*
X146001373Y-74086216D01*
X146213040Y-74086216D01*
X146382373Y-74128549D01*
X146467040Y-74170882D01*
X146509373Y-74213216D01*
X146551707Y-74297882D01*
X146551707Y-74382549D01*
X146509373Y-74467216D01*
X146467040Y-74509549D01*
X146382373Y-74551882D01*
X146213040Y-74594216D01*
X146001373Y-74594216D01*
X145832040Y-74551882D01*
X145747373Y-74509549D01*
X145705040Y-74467216D01*
X145662707Y-74382549D01*
X146467040Y-73705215D02*
X146509373Y-73662882D01*
X146551707Y-73705215D01*
X146509373Y-73747549D01*
X146467040Y-73705215D01*
X146551707Y-73705215D01*
X146551707Y-72816216D02*
X146551707Y-73324216D01*
X146551707Y-73070216D02*
X145662707Y-73070216D01*
X145789707Y-73154882D01*
X145874373Y-73239549D01*
X145916707Y-73324216D01*
X146213040Y-71757882D02*
X146213040Y-71080549D01*
X146551707Y-69514216D02*
X146551707Y-70022216D01*
X146551707Y-69768216D02*
X145662707Y-69768216D01*
X145789707Y-69852882D01*
X145874373Y-69937549D01*
X145916707Y-70022216D01*
X146043707Y-69006215D02*
X146001373Y-69090882D01*
X145959040Y-69133215D01*
X145874373Y-69175549D01*
X145832040Y-69175549D01*
X145747373Y-69133215D01*
X145705040Y-69090882D01*
X145662707Y-69006215D01*
X145662707Y-68836882D01*
X145705040Y-68752215D01*
X145747373Y-68709882D01*
X145832040Y-68667549D01*
X145874373Y-68667549D01*
X145959040Y-68709882D01*
X146001373Y-68752215D01*
X146043707Y-68836882D01*
X146043707Y-69006215D01*
X146086040Y-69090882D01*
X146128373Y-69133215D01*
X146213040Y-69175549D01*
X146382373Y-69175549D01*
X146467040Y-69133215D01*
X146509373Y-69090882D01*
X146551707Y-69006215D01*
X146551707Y-68836882D01*
X146509373Y-68752215D01*
X146467040Y-68709882D01*
X146382373Y-68667549D01*
X146213040Y-68667549D01*
X146128373Y-68709882D01*
X146086040Y-68752215D01*
X146043707Y-68836882D01*
X145662707Y-68117215D02*
X145662707Y-68032548D01*
X145705040Y-67947882D01*
X145747373Y-67905548D01*
X145832040Y-67863215D01*
X146001373Y-67820882D01*
X146213040Y-67820882D01*
X146382373Y-67863215D01*
X146467040Y-67905548D01*
X146509373Y-67947882D01*
X146551707Y-68032548D01*
X146551707Y-68117215D01*
X146509373Y-68201882D01*
X146467040Y-68244215D01*
X146382373Y-68286548D01*
X146213040Y-68328882D01*
X146001373Y-68328882D01*
X145832040Y-68286548D01*
X145747373Y-68244215D01*
X145705040Y-68201882D01*
X145662707Y-68117215D01*
X146551707Y-66974215D02*
X146551707Y-67482215D01*
X146551707Y-67228215D02*
X145662707Y-67228215D01*
X145789707Y-67312881D01*
X145874373Y-67397548D01*
X145916707Y-67482215D01*
X145747373Y-66635548D02*
X145705040Y-66593214D01*
X145662707Y-66508548D01*
X145662707Y-66296881D01*
X145705040Y-66212214D01*
X145747373Y-66169881D01*
X145832040Y-66127548D01*
X145916707Y-66127548D01*
X146043707Y-66169881D01*
X146551707Y-66677881D01*
X146551707Y-66127548D01*
X145959040Y-65365547D02*
X146551707Y-65365547D01*
X145620373Y-65577214D02*
X146255373Y-65788881D01*
X146255373Y-65238547D01*
D13*
X146397997Y-152693851D02*
X146397997Y-153193851D01*
X147183711Y-153193851D02*
X145683711Y-153193851D01*
X145683711Y-152479565D01*
X147183711Y-151050994D02*
X146469426Y-151550994D01*
X147183711Y-151908137D02*
X145683711Y-151908137D01*
X145683711Y-151336709D01*
X145755140Y-151193851D01*
X145826569Y-151122423D01*
X145969426Y-151050994D01*
X146183711Y-151050994D01*
X146326569Y-151122423D01*
X146397997Y-151193851D01*
X146469426Y-151336709D01*
X146469426Y-151908137D01*
X145683711Y-150122423D02*
X145683711Y-149836709D01*
X145755140Y-149693851D01*
X145897997Y-149550994D01*
X146183711Y-149479566D01*
X146683711Y-149479566D01*
X146969426Y-149550994D01*
X147112283Y-149693851D01*
X147183711Y-149836709D01*
X147183711Y-150122423D01*
X147112283Y-150265280D01*
X146969426Y-150408137D01*
X146683711Y-150479566D01*
X146183711Y-150479566D01*
X145897997Y-150408137D01*
X145755140Y-150265280D01*
X145683711Y-150122423D01*
X147183711Y-148836708D02*
X145683711Y-148836708D01*
X147183711Y-147979565D01*
X145683711Y-147979565D01*
X145683711Y-147479565D02*
X145683711Y-146622422D01*
X147183711Y-147050993D02*
X145683711Y-147050993D01*
D14*
X147066000Y-67665600D02*
X149606000Y-67665600D01*
X149606000Y-65125600D02*
X147066000Y-65125600D01*
X149606000Y-146405600D02*
X149606000Y-65125600D01*
X147066000Y-146405600D02*
X149606000Y-146405600D01*
X147066000Y-65125600D02*
X147066000Y-146405600D01*
X131826000Y-67665600D02*
X134366000Y-67665600D01*
X134366000Y-65125600D02*
X133096000Y-65125600D01*
X134366000Y-146405600D02*
X134366000Y-65125600D01*
X131826000Y-146405600D02*
X134366000Y-146405600D01*
X131826000Y-65125600D02*
X131826000Y-146405600D01*
X133096000Y-65125600D02*
X131826000Y-65125600D01*
X145203940Y-58091880D02*
X136203940Y-58091880D01*
X145203940Y-147991880D02*
X145203940Y-58091880D01*
X136203940Y-138241880D02*
X136203940Y-58091880D01*
X136203940Y-153991880D02*
X136203940Y-138241880D01*
X138203940Y-153991880D02*
X136203940Y-153991880D01*
X145203940Y-153991880D02*
X138203940Y-153991880D01*
X145203940Y-153991880D02*
X145203940Y-147991880D01*
D15*
G36*
X132778556Y-150430154D02*
X132989427Y-150430208D01*
X133186223Y-150430365D01*
X133368710Y-150430626D01*
X133536657Y-150430989D01*
X133689830Y-150431451D01*
X133827996Y-150432013D01*
X133950923Y-150432673D01*
X134058377Y-150433429D01*
X134150125Y-150434280D01*
X134225935Y-150435225D01*
X134285574Y-150436263D01*
X134328808Y-150437392D01*
X134355405Y-150438611D01*
X134359706Y-150438956D01*
X134516957Y-150461979D01*
X134668105Y-150500514D01*
X134812371Y-150554101D01*
X134948977Y-150622280D01*
X135077143Y-150704590D01*
X135196091Y-150800570D01*
X135305041Y-150909760D01*
X135403215Y-151031699D01*
X135431833Y-151072752D01*
X135512164Y-151206293D01*
X135576300Y-151344371D01*
X135624584Y-151487888D01*
X135657360Y-151637747D01*
X135664081Y-151683027D01*
X135669767Y-151740319D01*
X135673320Y-151807256D01*
X135674693Y-151878241D01*
X135673843Y-151947680D01*
X135670722Y-152009975D01*
X135667042Y-152047280D01*
X135639712Y-152196982D01*
X135597193Y-152342839D01*
X135540351Y-152483229D01*
X135470050Y-152616533D01*
X135387155Y-152741130D01*
X135292531Y-152855400D01*
X135187043Y-152957721D01*
X135176142Y-152967055D01*
X135049931Y-153063250D01*
X134916995Y-153144299D01*
X134778323Y-153210009D01*
X134634906Y-153260185D01*
X134487733Y-153294633D01*
X134337794Y-153313158D01*
X134263808Y-153314333D01*
X134263808Y-152892855D01*
X134383107Y-152882502D01*
X134500942Y-152857907D01*
X134616010Y-152818969D01*
X134727006Y-152765588D01*
X134832626Y-152697662D01*
X134931565Y-152615092D01*
X134953125Y-152594132D01*
X135039934Y-152495693D01*
X135112565Y-152388760D01*
X135170593Y-152274646D01*
X135213595Y-152154661D01*
X135241145Y-152030117D01*
X135252818Y-151902324D01*
X135248191Y-151772594D01*
X135239865Y-151708846D01*
X135211650Y-151585913D01*
X135168364Y-151468274D01*
X135111163Y-151357245D01*
X135041201Y-151254144D01*
X134959634Y-151160287D01*
X134867617Y-151076991D01*
X134766305Y-151005572D01*
X134656853Y-150947348D01*
X134540418Y-150903635D01*
X134531031Y-150900861D01*
X134465265Y-150883055D01*
X134408134Y-150870912D01*
X134352945Y-150863476D01*
X134293007Y-150859793D01*
X134236940Y-150858907D01*
X134103602Y-150866480D01*
X133976388Y-150889815D01*
X133855487Y-150928835D01*
X133741092Y-150983466D01*
X133633393Y-151053631D01*
X133534981Y-151136962D01*
X133443909Y-151234823D01*
X133368010Y-151340101D01*
X133307456Y-151452398D01*
X133262415Y-151571318D01*
X133233060Y-151696463D01*
X133219559Y-151827437D01*
X133218611Y-151873714D01*
X133226631Y-152006151D01*
X133250542Y-152133484D01*
X133290119Y-152255020D01*
X133345138Y-152370065D01*
X133413258Y-152475082D01*
X133497307Y-152575032D01*
X133590328Y-152661547D01*
X133691016Y-152734526D01*
X133798066Y-152793869D01*
X133910175Y-152839474D01*
X134026038Y-152871240D01*
X134144350Y-152889068D01*
X134263808Y-152892855D01*
X134263808Y-153314333D01*
X134186078Y-153315568D01*
X134033577Y-153301666D01*
X133881278Y-153271260D01*
X133778899Y-153241243D01*
X133635610Y-153185100D01*
X133501485Y-153115378D01*
X133377113Y-153033099D01*
X133263081Y-152939286D01*
X133159979Y-152834960D01*
X133068395Y-152721145D01*
X132988917Y-152598863D01*
X132922134Y-152469136D01*
X132868635Y-152332986D01*
X132829009Y-152191437D01*
X132803843Y-152045509D01*
X132793726Y-151896226D01*
X132799247Y-151744610D01*
X132820995Y-151591684D01*
X132823134Y-151580987D01*
X132860352Y-151439171D01*
X132913196Y-151299760D01*
X132980358Y-151165344D01*
X133060533Y-151038510D01*
X133152413Y-150921848D01*
X133160585Y-150912634D01*
X133213547Y-150853480D01*
X131290539Y-150853480D01*
X131290539Y-150430147D01*
X132778556Y-150430154D01*
X132778556Y-150430154D01*
G37*
X132778556Y-150430154D02*
X132989427Y-150430208D01*
X133186223Y-150430365D01*
X133368710Y-150430626D01*
X133536657Y-150430989D01*
X133689830Y-150431451D01*
X133827996Y-150432013D01*
X133950923Y-150432673D01*
X134058377Y-150433429D01*
X134150125Y-150434280D01*
X134225935Y-150435225D01*
X134285574Y-150436263D01*
X134328808Y-150437392D01*
X134355405Y-150438611D01*
X134359706Y-150438956D01*
X134516957Y-150461979D01*
X134668105Y-150500514D01*
X134812371Y-150554101D01*
X134948977Y-150622280D01*
X135077143Y-150704590D01*
X135196091Y-150800570D01*
X135305041Y-150909760D01*
X135403215Y-151031699D01*
X135431833Y-151072752D01*
X135512164Y-151206293D01*
X135576300Y-151344371D01*
X135624584Y-151487888D01*
X135657360Y-151637747D01*
X135664081Y-151683027D01*
X135669767Y-151740319D01*
X135673320Y-151807256D01*
X135674693Y-151878241D01*
X135673843Y-151947680D01*
X135670722Y-152009975D01*
X135667042Y-152047280D01*
X135639712Y-152196982D01*
X135597193Y-152342839D01*
X135540351Y-152483229D01*
X135470050Y-152616533D01*
X135387155Y-152741130D01*
X135292531Y-152855400D01*
X135187043Y-152957721D01*
X135176142Y-152967055D01*
X135049931Y-153063250D01*
X134916995Y-153144299D01*
X134778323Y-153210009D01*
X134634906Y-153260185D01*
X134487733Y-153294633D01*
X134337794Y-153313158D01*
X134263808Y-153314333D01*
X134263808Y-152892855D01*
X134383107Y-152882502D01*
X134500942Y-152857907D01*
X134616010Y-152818969D01*
X134727006Y-152765588D01*
X134832626Y-152697662D01*
X134931565Y-152615092D01*
X134953125Y-152594132D01*
X135039934Y-152495693D01*
X135112565Y-152388760D01*
X135170593Y-152274646D01*
X135213595Y-152154661D01*
X135241145Y-152030117D01*
X135252818Y-151902324D01*
X135248191Y-151772594D01*
X135239865Y-151708846D01*
X135211650Y-151585913D01*
X135168364Y-151468274D01*
X135111163Y-151357245D01*
X135041201Y-151254144D01*
X134959634Y-151160287D01*
X134867617Y-151076991D01*
X134766305Y-151005572D01*
X134656853Y-150947348D01*
X134540418Y-150903635D01*
X134531031Y-150900861D01*
X134465265Y-150883055D01*
X134408134Y-150870912D01*
X134352945Y-150863476D01*
X134293007Y-150859793D01*
X134236940Y-150858907D01*
X134103602Y-150866480D01*
X133976388Y-150889815D01*
X133855487Y-150928835D01*
X133741092Y-150983466D01*
X133633393Y-151053631D01*
X133534981Y-151136962D01*
X133443909Y-151234823D01*
X133368010Y-151340101D01*
X133307456Y-151452398D01*
X133262415Y-151571318D01*
X133233060Y-151696463D01*
X133219559Y-151827437D01*
X133218611Y-151873714D01*
X133226631Y-152006151D01*
X133250542Y-152133484D01*
X133290119Y-152255020D01*
X133345138Y-152370065D01*
X133413258Y-152475082D01*
X133497307Y-152575032D01*
X133590328Y-152661547D01*
X133691016Y-152734526D01*
X133798066Y-152793869D01*
X133910175Y-152839474D01*
X134026038Y-152871240D01*
X134144350Y-152889068D01*
X134263808Y-152892855D01*
X134263808Y-153314333D01*
X134186078Y-153315568D01*
X134033577Y-153301666D01*
X133881278Y-153271260D01*
X133778899Y-153241243D01*
X133635610Y-153185100D01*
X133501485Y-153115378D01*
X133377113Y-153033099D01*
X133263081Y-152939286D01*
X133159979Y-152834960D01*
X133068395Y-152721145D01*
X132988917Y-152598863D01*
X132922134Y-152469136D01*
X132868635Y-152332986D01*
X132829009Y-152191437D01*
X132803843Y-152045509D01*
X132793726Y-151896226D01*
X132799247Y-151744610D01*
X132820995Y-151591684D01*
X132823134Y-151580987D01*
X132860352Y-151439171D01*
X132913196Y-151299760D01*
X132980358Y-151165344D01*
X133060533Y-151038510D01*
X133152413Y-150921848D01*
X133160585Y-150912634D01*
X133213547Y-150853480D01*
X131290539Y-150853480D01*
X131290539Y-150430147D01*
X132778556Y-150430154D01*
G36*
X133212412Y-149575014D02*
X133147400Y-149499137D01*
X133052209Y-149375703D01*
X132971950Y-149245822D01*
X132906578Y-149110630D01*
X132856049Y-148971262D01*
X132820316Y-148828854D01*
X132799334Y-148684541D01*
X132793057Y-148539459D01*
X132801440Y-148394743D01*
X132824438Y-148251529D01*
X132862005Y-148110952D01*
X132914095Y-147974148D01*
X132980663Y-147842251D01*
X133061663Y-147716399D01*
X133157050Y-147597726D01*
X133226491Y-147525224D01*
X133343764Y-147421676D01*
X133468117Y-147333105D01*
X133600287Y-147259141D01*
X133741009Y-147199414D01*
X133891017Y-147153553D01*
X134016806Y-147126841D01*
X134062597Y-147121186D01*
X134120893Y-147117504D01*
X134187386Y-147115751D01*
X134257770Y-147115884D01*
X134327736Y-147117859D01*
X134392977Y-147121631D01*
X134449186Y-147127156D01*
X134478239Y-147131558D01*
X134633934Y-147168014D01*
X134781072Y-147219065D01*
X134919899Y-147284839D01*
X135050662Y-147365464D01*
X135173608Y-147461071D01*
X135257173Y-147539001D01*
X135361637Y-147655432D01*
X135451870Y-147780765D01*
X135527479Y-147914207D01*
X135588072Y-148054963D01*
X135633256Y-148202237D01*
X135662640Y-148355235D01*
X135663632Y-148362597D01*
X135669846Y-148425058D01*
X135673606Y-148496229D01*
X135674857Y-148570384D01*
X135673546Y-148641799D01*
X135669619Y-148704747D01*
X135667042Y-148728347D01*
X135639071Y-148881318D01*
X135595639Y-149028836D01*
X135537477Y-149169852D01*
X135465318Y-149303315D01*
X135379893Y-149428175D01*
X135281934Y-149543383D01*
X135172174Y-149647888D01*
X135051343Y-149740640D01*
X134920176Y-149820588D01*
X134897295Y-149832629D01*
X134759261Y-149895428D01*
X134619023Y-149942435D01*
X134473703Y-149974480D01*
X134352047Y-149989885D01*
X134331552Y-149990932D01*
X134294722Y-149991923D01*
X134242156Y-149992854D01*
X134219438Y-149993145D01*
X134219438Y-149571692D01*
X134344884Y-149566038D01*
X134469538Y-149544584D01*
X134591908Y-149507045D01*
X134617939Y-149496779D01*
X134734588Y-149440115D01*
X134841294Y-149370641D01*
X134937350Y-149289613D01*
X135022048Y-149198287D01*
X135094681Y-149097917D01*
X135154542Y-148989760D01*
X135200922Y-148875072D01*
X135233115Y-148755107D01*
X135250412Y-148631122D01*
X135252106Y-148504371D01*
X135240277Y-148392460D01*
X135211434Y-148265960D01*
X135167545Y-148145901D01*
X135109625Y-148033363D01*
X135038692Y-147929429D01*
X134955762Y-147835181D01*
X134861851Y-147751700D01*
X134757975Y-147680068D01*
X134645152Y-147621368D01*
X134524398Y-147576680D01*
X134457073Y-147558942D01*
X134384944Y-147546471D01*
X134303726Y-147538971D01*
X134219929Y-147536655D01*
X134140061Y-147539735D01*
X134080724Y-147546657D01*
X133952521Y-147575793D01*
X133832428Y-147618996D01*
X133721080Y-147675155D01*
X133619114Y-147743159D01*
X133527167Y-147821898D01*
X133445875Y-147910262D01*
X133375874Y-148007140D01*
X133317802Y-148111420D01*
X133272294Y-148221993D01*
X133239988Y-148337747D01*
X133221519Y-148457573D01*
X133217525Y-148580359D01*
X133228642Y-148704995D01*
X133255506Y-148830370D01*
X133288311Y-148929286D01*
X133338291Y-149036620D01*
X133403443Y-149140034D01*
X133482065Y-149237025D01*
X133533590Y-149289757D01*
X133632490Y-149372926D01*
X133739541Y-149442002D01*
X133853251Y-149496702D01*
X133972131Y-149536739D01*
X134094690Y-149561831D01*
X134219438Y-149571692D01*
X134219438Y-149993145D01*
X134174450Y-149993723D01*
X134092204Y-149994526D01*
X133996016Y-149995260D01*
X133886483Y-149995922D01*
X133764204Y-149996509D01*
X133629777Y-149997017D01*
X133483800Y-149997444D01*
X133326872Y-149997786D01*
X133159590Y-149998041D01*
X132982552Y-149998204D01*
X132796358Y-149998273D01*
X132774323Y-149998274D01*
X131290539Y-149998347D01*
X131290539Y-149575014D01*
X133212412Y-149575014D01*
X133212412Y-149575014D01*
G37*
X133212412Y-149575014D02*
X133147400Y-149499137D01*
X133052209Y-149375703D01*
X132971950Y-149245822D01*
X132906578Y-149110630D01*
X132856049Y-148971262D01*
X132820316Y-148828854D01*
X132799334Y-148684541D01*
X132793057Y-148539459D01*
X132801440Y-148394743D01*
X132824438Y-148251529D01*
X132862005Y-148110952D01*
X132914095Y-147974148D01*
X132980663Y-147842251D01*
X133061663Y-147716399D01*
X133157050Y-147597726D01*
X133226491Y-147525224D01*
X133343764Y-147421676D01*
X133468117Y-147333105D01*
X133600287Y-147259141D01*
X133741009Y-147199414D01*
X133891017Y-147153553D01*
X134016806Y-147126841D01*
X134062597Y-147121186D01*
X134120893Y-147117504D01*
X134187386Y-147115751D01*
X134257770Y-147115884D01*
X134327736Y-147117859D01*
X134392977Y-147121631D01*
X134449186Y-147127156D01*
X134478239Y-147131558D01*
X134633934Y-147168014D01*
X134781072Y-147219065D01*
X134919899Y-147284839D01*
X135050662Y-147365464D01*
X135173608Y-147461071D01*
X135257173Y-147539001D01*
X135361637Y-147655432D01*
X135451870Y-147780765D01*
X135527479Y-147914207D01*
X135588072Y-148054963D01*
X135633256Y-148202237D01*
X135662640Y-148355235D01*
X135663632Y-148362597D01*
X135669846Y-148425058D01*
X135673606Y-148496229D01*
X135674857Y-148570384D01*
X135673546Y-148641799D01*
X135669619Y-148704747D01*
X135667042Y-148728347D01*
X135639071Y-148881318D01*
X135595639Y-149028836D01*
X135537477Y-149169852D01*
X135465318Y-149303315D01*
X135379893Y-149428175D01*
X135281934Y-149543383D01*
X135172174Y-149647888D01*
X135051343Y-149740640D01*
X134920176Y-149820588D01*
X134897295Y-149832629D01*
X134759261Y-149895428D01*
X134619023Y-149942435D01*
X134473703Y-149974480D01*
X134352047Y-149989885D01*
X134331552Y-149990932D01*
X134294722Y-149991923D01*
X134242156Y-149992854D01*
X134219438Y-149993145D01*
X134219438Y-149571692D01*
X134344884Y-149566038D01*
X134469538Y-149544584D01*
X134591908Y-149507045D01*
X134617939Y-149496779D01*
X134734588Y-149440115D01*
X134841294Y-149370641D01*
X134937350Y-149289613D01*
X135022048Y-149198287D01*
X135094681Y-149097917D01*
X135154542Y-148989760D01*
X135200922Y-148875072D01*
X135233115Y-148755107D01*
X135250412Y-148631122D01*
X135252106Y-148504371D01*
X135240277Y-148392460D01*
X135211434Y-148265960D01*
X135167545Y-148145901D01*
X135109625Y-148033363D01*
X135038692Y-147929429D01*
X134955762Y-147835181D01*
X134861851Y-147751700D01*
X134757975Y-147680068D01*
X134645152Y-147621368D01*
X134524398Y-147576680D01*
X134457073Y-147558942D01*
X134384944Y-147546471D01*
X134303726Y-147538971D01*
X134219929Y-147536655D01*
X134140061Y-147539735D01*
X134080724Y-147546657D01*
X133952521Y-147575793D01*
X133832428Y-147618996D01*
X133721080Y-147675155D01*
X133619114Y-147743159D01*
X133527167Y-147821898D01*
X133445875Y-147910262D01*
X133375874Y-148007140D01*
X133317802Y-148111420D01*
X133272294Y-148221993D01*
X133239988Y-148337747D01*
X133221519Y-148457573D01*
X133217525Y-148580359D01*
X133228642Y-148704995D01*
X133255506Y-148830370D01*
X133288311Y-148929286D01*
X133338291Y-149036620D01*
X133403443Y-149140034D01*
X133482065Y-149237025D01*
X133533590Y-149289757D01*
X133632490Y-149372926D01*
X133739541Y-149442002D01*
X133853251Y-149496702D01*
X133972131Y-149536739D01*
X134094690Y-149561831D01*
X134219438Y-149571692D01*
X134219438Y-149993145D01*
X134174450Y-149993723D01*
X134092204Y-149994526D01*
X133996016Y-149995260D01*
X133886483Y-149995922D01*
X133764204Y-149996509D01*
X133629777Y-149997017D01*
X133483800Y-149997444D01*
X133326872Y-149997786D01*
X133159590Y-149998041D01*
X132982552Y-149998204D01*
X132796358Y-149998273D01*
X132774323Y-149998274D01*
X131290539Y-149998347D01*
X131290539Y-149575014D01*
X133212412Y-149575014D01*
M02*
