G04 #@! TF.FileFunction,Copper,L1,Top,Signal*
%FSLAX46Y46*%
G04 Gerber Fmt 4.6, Leading zero omitted, Abs format (unit mm)*
G04 Created by KiCad (PCBNEW 4.0.7-e2-6376~58~ubuntu16.04.1) date Thu Feb  1 20:28:21 2018*
%MOMM*%
%LPD*%
G01*
G04 APERTURE LIST*
%ADD10C,0.177800*%
%ADD11C,1.524000*%
%ADD12C,0.609600*%
%ADD13C,0.304800*%
G04 APERTURE END LIST*
D10*
D11*
X133093940Y-66423880D03*
X133093940Y-68963880D03*
X133093940Y-71503880D03*
X133093940Y-74043880D03*
X133093940Y-76583880D03*
X133093940Y-79123880D03*
X133093940Y-81663880D03*
X133093940Y-84203880D03*
X133093940Y-86743880D03*
X133093940Y-89283880D03*
X133093940Y-91823880D03*
X133093940Y-94363880D03*
X133093940Y-96903880D03*
X133093940Y-99443880D03*
X133093940Y-101983880D03*
X133093940Y-104523880D03*
X133093940Y-107063880D03*
X133093940Y-109603880D03*
X133093940Y-112143880D03*
X133093940Y-114683880D03*
X133093940Y-117223880D03*
X133093940Y-119763880D03*
X133093940Y-122303880D03*
X133093940Y-124843880D03*
X133093940Y-127383880D03*
X133093940Y-129923880D03*
X133093940Y-132463880D03*
X133093940Y-135003880D03*
X133093940Y-137543880D03*
X133093940Y-140083880D03*
X133093940Y-142623880D03*
X133093940Y-145163880D03*
X148333940Y-145163880D03*
X148333940Y-142623880D03*
X148333940Y-140083880D03*
X148333940Y-137543880D03*
X148333940Y-135003880D03*
X148333940Y-132463880D03*
X148333940Y-129923880D03*
X148333940Y-127383880D03*
X148333940Y-124843880D03*
X148333940Y-122303880D03*
X148333940Y-119763880D03*
X148333940Y-117223880D03*
X148333940Y-114683880D03*
X148333940Y-112143880D03*
X148333940Y-109603880D03*
X148333940Y-107063880D03*
X148333940Y-104523880D03*
X148333940Y-101983880D03*
X148333940Y-99443880D03*
X148333940Y-96903880D03*
X148333940Y-94363880D03*
X148333940Y-91823880D03*
X148333940Y-89283880D03*
X148333940Y-86743880D03*
X148333940Y-84203880D03*
X148333940Y-81663880D03*
X148333940Y-79123880D03*
X148333940Y-76583880D03*
X148333940Y-74043880D03*
X148333940Y-71503880D03*
X148333940Y-68963880D03*
X148333940Y-66423880D03*
X143203940Y-148741880D03*
X143203940Y-146241880D03*
X143203940Y-143741880D03*
X143203940Y-141241880D03*
X143203940Y-133541880D03*
X143203940Y-131041880D03*
X143203940Y-128541880D03*
X143203940Y-126041880D03*
X143203940Y-123541880D03*
X143203940Y-121041880D03*
X143203940Y-118541880D03*
X143203940Y-116041880D03*
X143203940Y-113541880D03*
X143203940Y-111041880D03*
X143203940Y-108541880D03*
X143203940Y-106041880D03*
X143203940Y-103541880D03*
X143203940Y-101041880D03*
X143203940Y-98541880D03*
X143203940Y-96041880D03*
X143203940Y-93541880D03*
X143203940Y-91041880D03*
X143203940Y-88541880D03*
X143203940Y-86041880D03*
X143203940Y-83541880D03*
X143203940Y-81041880D03*
X143203940Y-78541880D03*
X143203940Y-70841880D03*
X143203940Y-68341880D03*
X143203940Y-65841880D03*
X143203940Y-63341880D03*
X138203940Y-63341880D03*
X138203940Y-65841880D03*
X138203940Y-68341880D03*
X138203940Y-70841880D03*
X138203940Y-78541880D03*
X138203940Y-81041880D03*
X138203940Y-83541880D03*
X138203940Y-86041880D03*
X138203940Y-88541880D03*
X138203940Y-91041880D03*
X138203940Y-93541880D03*
X138203940Y-96041880D03*
X138203940Y-98541880D03*
X138203940Y-101041880D03*
X138203940Y-103541880D03*
X138203940Y-106041880D03*
X138203940Y-108541880D03*
X138203940Y-111041880D03*
X138203940Y-113541880D03*
X138203940Y-116041880D03*
X138203940Y-118541880D03*
X138203940Y-121041880D03*
X138203940Y-123541880D03*
X138203940Y-126041880D03*
X138203940Y-128541880D03*
X138203940Y-131041880D03*
X138203940Y-133541880D03*
X138203940Y-141241880D03*
X138203940Y-143741880D03*
X138203940Y-146241880D03*
X138203940Y-148741880D03*
D12*
X141434787Y-129326980D03*
X141457440Y-121541880D03*
X142034740Y-129898480D03*
X134810510Y-119220262D03*
X135051811Y-119964146D03*
X135382021Y-120718314D03*
X135712231Y-121491080D03*
X141272740Y-116030080D03*
X141272740Y-118595480D03*
X141127230Y-122583280D03*
X137151660Y-119376480D03*
D13*
X135659340Y-141674938D02*
X135659340Y-142598480D01*
X135659340Y-142598480D02*
X133093940Y-145163880D01*
X138203940Y-133541880D02*
X138203940Y-139130338D01*
X138203940Y-139130338D02*
X135659340Y-141674938D01*
X138203940Y-133541880D02*
X139281570Y-133541880D01*
X139281570Y-133541880D02*
X143203940Y-133541880D01*
X143203940Y-133541880D02*
X145501140Y-131244680D01*
X145501140Y-131244680D02*
X148761538Y-131244680D01*
X148761538Y-131244680D02*
X149730940Y-132214082D01*
X149730940Y-132214082D02*
X149730940Y-143740660D01*
X149730940Y-143740660D02*
X148336000Y-145135600D01*
D10*
X135728940Y-87841880D02*
X135728940Y-86808540D01*
X140878940Y-88541880D02*
X139850239Y-89570581D01*
X139850239Y-89570581D02*
X137457641Y-89570581D01*
X137457641Y-89570581D02*
X135728940Y-87841880D01*
X143203940Y-88541880D02*
X140878940Y-88541880D01*
X135728940Y-86808540D02*
X133096000Y-84175600D01*
X141434787Y-129326980D02*
X141129988Y-129631779D01*
X141129988Y-129631779D02*
X137698149Y-129631779D01*
X137698149Y-129631779D02*
X134231050Y-126164680D01*
X134231050Y-126164680D02*
X132712940Y-126164680D01*
X133096000Y-112115600D02*
X131976340Y-113235260D01*
X131976340Y-113235260D02*
X131976340Y-118676772D01*
X131976340Y-118676772D02*
X131711689Y-118941423D01*
X131711689Y-118941423D02*
X131711689Y-125163429D01*
X131711689Y-125163429D02*
X132712940Y-126164680D01*
X143203940Y-121041880D02*
X141957440Y-121041880D01*
X141957440Y-121041880D02*
X141457440Y-121541880D01*
X133096000Y-119735600D02*
X134267280Y-120906880D01*
X134267280Y-122943972D02*
X134267280Y-120906880D01*
X135980877Y-124657569D02*
X134267280Y-122943972D01*
X145348330Y-120686270D02*
X145348330Y-124375090D01*
X145348330Y-124375090D02*
X145065851Y-124657569D01*
X145065851Y-124657569D02*
X135980877Y-124657569D01*
X143203940Y-118541880D02*
X145348330Y-120686270D01*
X143203940Y-118541880D02*
X144473140Y-119811080D01*
X143203940Y-116041880D02*
X144578941Y-117416881D01*
X135833579Y-125013179D02*
X133857999Y-123037599D01*
X144578941Y-117416881D02*
X144578941Y-118700605D01*
X144578941Y-118700605D02*
X145703940Y-119825604D01*
X145703940Y-119825604D02*
X145703940Y-124527480D01*
X145703940Y-124527480D02*
X145218241Y-125013179D01*
X145218241Y-125013179D02*
X135833579Y-125013179D01*
X133857999Y-123037599D02*
X133096000Y-122275600D01*
X137576641Y-130013179D02*
X137459062Y-129895600D01*
X137459062Y-129895600D02*
X133096000Y-129895600D01*
X142034740Y-129898480D02*
X141603688Y-129898480D01*
X141603688Y-129898480D02*
X141488989Y-130013179D01*
X141488989Y-130013179D02*
X137576641Y-130013179D01*
X146059550Y-127619150D02*
X146059550Y-119678306D01*
X146059550Y-119678306D02*
X144934550Y-118553306D01*
X144934550Y-118553306D02*
X144934550Y-112772490D01*
X144934550Y-112772490D02*
X143965939Y-111803879D01*
X143965939Y-111803879D02*
X143203940Y-111041880D01*
X148336000Y-129895600D02*
X146059550Y-127619150D01*
X148336000Y-122275600D02*
X147003940Y-120943540D01*
X145945452Y-109008392D02*
X145478940Y-108541880D01*
X145478940Y-108541880D02*
X143203940Y-108541880D01*
X147003940Y-120943540D02*
X147003940Y-119616880D01*
X147003940Y-119616880D02*
X146517720Y-119130660D01*
X146517720Y-119130660D02*
X146517720Y-112761476D01*
X146517720Y-112761476D02*
X145945452Y-112189208D01*
X145945452Y-112189208D02*
X145945452Y-109008392D01*
X146301061Y-112041909D02*
X146873330Y-112614178D01*
X146873330Y-112614178D02*
X146873330Y-118272930D01*
X146873330Y-118272930D02*
X147574001Y-118973601D01*
X147574001Y-118973601D02*
X148336000Y-119735600D01*
X145576060Y-106041880D02*
X146301060Y-106766880D01*
X146301060Y-106766880D02*
X146301061Y-112041909D01*
X143203940Y-106041880D02*
X145576060Y-106041880D01*
X148336000Y-112115600D02*
X147012280Y-110791880D01*
X147012280Y-110791880D02*
X147012280Y-104800220D01*
X147012280Y-104800220D02*
X145753940Y-103541880D01*
X145753940Y-103541880D02*
X143203940Y-103541880D01*
X143203940Y-98541880D02*
X142175239Y-99570581D01*
X147228940Y-112466880D02*
X147228940Y-113548540D01*
X142175239Y-99570581D02*
X142175239Y-104035657D01*
X147228940Y-113548540D02*
X148336000Y-114655600D01*
X142175239Y-104035657D02*
X142710163Y-104570581D01*
X142710163Y-104570581D02*
X146057641Y-104570581D01*
X146057641Y-104570581D02*
X146656670Y-105169610D01*
X146656670Y-105169610D02*
X146656670Y-111894610D01*
X146656670Y-111894610D02*
X147228940Y-112466880D01*
X149364701Y-115491880D02*
X149364701Y-96381823D01*
X148336000Y-117195600D02*
X149097999Y-116433601D01*
X149097999Y-116433601D02*
X149097999Y-115758582D01*
X149097999Y-115758582D02*
X149364701Y-115491880D01*
X144476551Y-95846899D02*
X144281570Y-96041880D01*
X149364701Y-96381823D02*
X148829777Y-95846899D01*
X148829777Y-95846899D02*
X144476551Y-95846899D01*
X144281570Y-96041880D02*
X143203940Y-96041880D01*
X143203940Y-93541880D02*
X142441941Y-94303879D01*
X146162111Y-119277959D02*
X146648330Y-119764178D01*
X142441941Y-94303879D02*
X142441941Y-94329881D01*
X141803940Y-108664358D02*
X142710163Y-109570581D01*
X142441941Y-94329881D02*
X141803940Y-94967882D01*
X142710163Y-109570581D02*
X144650239Y-109570581D01*
X141803940Y-94967882D02*
X141803940Y-108664358D01*
X144650239Y-109570581D02*
X145589843Y-110510185D01*
X145589843Y-110510185D02*
X145589843Y-112336507D01*
X145589843Y-112336507D02*
X146162110Y-112908774D01*
X146162110Y-112908774D02*
X146162111Y-119277959D01*
X146648330Y-119764178D02*
X146648330Y-123127930D01*
X146648330Y-123127930D02*
X148336000Y-124815600D01*
X143203940Y-91041880D02*
X144281570Y-91041880D01*
X144281570Y-91041880D02*
X144731570Y-90591880D01*
X144731570Y-90591880D02*
X148803940Y-90591880D01*
X148803940Y-90591880D02*
X149720311Y-91508251D01*
X149720311Y-91508251D02*
X149720311Y-125971289D01*
X149720311Y-125971289D02*
X148336000Y-127355600D01*
X143203940Y-81041880D02*
X147742280Y-81041880D01*
X147742280Y-81041880D02*
X148336000Y-81635600D01*
D13*
X143203940Y-78541880D02*
X142126310Y-78541880D01*
X142126310Y-78541880D02*
X138203940Y-78541880D01*
X133093940Y-68963880D02*
X138203940Y-74073880D01*
X138203940Y-74073880D02*
X138203940Y-78541880D01*
D10*
X144142940Y-84838880D02*
X141906940Y-84838880D01*
X141906940Y-84838880D02*
X138203940Y-88541880D01*
X144777940Y-84203880D02*
X144142940Y-84838880D01*
X148333940Y-84203880D02*
X144777940Y-84203880D01*
X134160740Y-113617080D02*
X134160740Y-95085080D01*
X134160740Y-95085080D02*
X138203940Y-91041880D01*
X133093940Y-114683880D02*
X134160740Y-113617080D01*
X134490950Y-97254870D02*
X134490950Y-115826870D01*
X134490950Y-115826870D02*
X133093940Y-117223880D01*
X138203940Y-93541880D02*
X134490950Y-97254870D01*
X133093940Y-124843880D02*
X132041899Y-123791839D01*
X132041899Y-123791839D02*
X132041899Y-119114121D01*
X132041899Y-119114121D02*
X132611340Y-118544680D01*
X132611340Y-118544680D02*
X133258026Y-118544680D01*
X133258026Y-118544680D02*
X134821160Y-116981546D01*
X134821160Y-116981546D02*
X134821160Y-99424660D01*
X134821160Y-99424660D02*
X138203940Y-96041880D01*
X138203940Y-98541880D02*
X139494740Y-97251080D01*
X131381479Y-92051455D02*
X131381479Y-125671419D01*
X131381479Y-125671419D02*
X132331941Y-126621881D01*
X139494740Y-97251080D02*
X139494740Y-90847794D01*
X139494740Y-90847794D02*
X138565826Y-89918880D01*
X132331941Y-126621881D02*
X133093940Y-127383880D01*
X138565826Y-89918880D02*
X136319740Y-89918880D01*
X136319740Y-89918880D02*
X135608540Y-90630080D01*
X135608540Y-90630080D02*
X132802854Y-90630080D01*
X132802854Y-90630080D02*
X131381479Y-92051455D01*
X135633980Y-117223880D02*
X134810510Y-118047350D01*
X134810510Y-118047350D02*
X134810510Y-119220262D01*
X135633980Y-116182480D02*
X135633980Y-117223880D01*
X135633980Y-106111840D02*
X135633980Y-116182480D01*
X138203940Y-103541880D02*
X135633980Y-106111840D01*
X135356610Y-118095554D02*
X135989590Y-117462574D01*
X135989590Y-117462574D02*
X135989590Y-108256230D01*
X135989590Y-108256230D02*
X137441941Y-106803879D01*
X137441941Y-106803879D02*
X138203940Y-106041880D01*
X135051811Y-119964146D02*
X135356610Y-119659347D01*
X135356610Y-119659347D02*
X135356610Y-118095554D01*
X135382021Y-120718314D02*
X135686820Y-120413515D01*
X135686820Y-118232331D02*
X136319800Y-117599351D01*
X135686820Y-120413515D02*
X135686820Y-118232331D01*
X136319800Y-110426020D02*
X137441941Y-109303879D01*
X136319800Y-117599351D02*
X136319800Y-110426020D01*
X137441941Y-109303879D02*
X138203940Y-108541880D01*
X136116540Y-118269595D02*
X136650010Y-117736128D01*
X135712231Y-121491080D02*
X136017030Y-121186281D01*
X136017030Y-121186281D02*
X136017030Y-118369105D01*
X136017030Y-118369105D02*
X136116540Y-118269595D01*
X136650010Y-117736128D02*
X136650010Y-112601080D01*
X138203940Y-111041880D02*
X137441941Y-111803879D01*
X137441941Y-111803879D02*
X137441941Y-111809149D01*
X137441941Y-111809149D02*
X136650010Y-112601080D01*
X141272740Y-116030080D02*
X138215740Y-116030080D01*
X138215740Y-116030080D02*
X138203940Y-116041880D01*
X141272740Y-118595480D02*
X138257540Y-118595480D01*
X138257540Y-118595480D02*
X138203940Y-118541880D01*
X138203940Y-121041880D02*
X139585830Y-121041880D01*
X139585830Y-121041880D02*
X141127230Y-122583280D01*
X137056420Y-119497120D02*
X137056420Y-119471720D01*
X137056420Y-119471720D02*
X137151660Y-119376480D01*
X137056420Y-122394360D02*
X137056420Y-119497120D01*
X138203940Y-123541880D02*
X137056420Y-122394360D01*
M02*
