G04 #@! TF.FileFunction,Soldermask,Bot*
%FSLAX46Y46*%
G04 Gerber Fmt 4.6, Leading zero omitted, Abs format (unit mm)*
G04 Created by KiCad (PCBNEW 4.0.7-e2-6376~58~ubuntu16.04.1) date Wed Jan 24 19:35:02 2018*
%MOMM*%
%LPD*%
G01*
G04 APERTURE LIST*
%ADD10C,0.100000*%
%ADD11C,1.727200*%
G04 APERTURE END LIST*
D10*
D11*
X133096000Y-66395600D03*
X133096000Y-68935600D03*
X133096000Y-71475600D03*
X133096000Y-74015600D03*
X133096000Y-76555600D03*
X133096000Y-79095600D03*
X133096000Y-81635600D03*
X133096000Y-84175600D03*
X133096000Y-86715600D03*
X133096000Y-89255600D03*
X133096000Y-91795600D03*
X133096000Y-94335600D03*
X133096000Y-96875600D03*
X133096000Y-99415600D03*
X133096000Y-101955600D03*
X133096000Y-104495600D03*
X133096000Y-107035600D03*
X133096000Y-109575600D03*
X133096000Y-112115600D03*
X133096000Y-114655600D03*
X133096000Y-117195600D03*
X133096000Y-119735600D03*
X133096000Y-122275600D03*
X133096000Y-124815600D03*
X133096000Y-127355600D03*
X133096000Y-129895600D03*
X133096000Y-132435600D03*
X133096000Y-134975600D03*
X133096000Y-137515600D03*
X133096000Y-140055600D03*
X133096000Y-142595600D03*
X133096000Y-145135600D03*
X148336000Y-145135600D03*
X148336000Y-142595600D03*
X148336000Y-140055600D03*
X148336000Y-137515600D03*
X148336000Y-134975600D03*
X148336000Y-132435600D03*
X148336000Y-129895600D03*
X148336000Y-127355600D03*
X148336000Y-124815600D03*
X148336000Y-122275600D03*
X148336000Y-119735600D03*
X148336000Y-117195600D03*
X148336000Y-114655600D03*
X148336000Y-112115600D03*
X148336000Y-109575600D03*
X148336000Y-107035600D03*
X148336000Y-104495600D03*
X148336000Y-101955600D03*
X148336000Y-99415600D03*
X148336000Y-96875600D03*
X148336000Y-94335600D03*
X148336000Y-91795600D03*
X148336000Y-89255600D03*
X148336000Y-86715600D03*
X148336000Y-84175600D03*
X148336000Y-81635600D03*
X148336000Y-79095600D03*
X148336000Y-76555600D03*
X148336000Y-74015600D03*
X148336000Y-71475600D03*
X148336000Y-68935600D03*
X148336000Y-66395600D03*
X143203940Y-148741880D03*
X143203940Y-146241880D03*
X143203940Y-143741880D03*
X143203940Y-141241880D03*
X143203940Y-133541880D03*
X143203940Y-131041880D03*
X143203940Y-128541880D03*
X143203940Y-126041880D03*
X143203940Y-123541880D03*
X143203940Y-121041880D03*
X143203940Y-118541880D03*
X143203940Y-116041880D03*
X143203940Y-113541880D03*
X143203940Y-111041880D03*
X143203940Y-108541880D03*
X143203940Y-106041880D03*
X143203940Y-103541880D03*
X143203940Y-101041880D03*
X143203940Y-98541880D03*
X143203940Y-96041880D03*
X143203940Y-93541880D03*
X143203940Y-91041880D03*
X143203940Y-88541880D03*
X143203940Y-86041880D03*
X143203940Y-83541880D03*
X143203940Y-81041880D03*
X143203940Y-78541880D03*
X143203940Y-70841880D03*
X143203940Y-68341880D03*
X143203940Y-65841880D03*
X143203940Y-63341880D03*
X138203940Y-63341880D03*
X138203940Y-65841880D03*
X138203940Y-68341880D03*
X138203940Y-70841880D03*
X138203940Y-78541880D03*
X138203940Y-81041880D03*
X138203940Y-83541880D03*
X138203940Y-86041880D03*
X138203940Y-88541880D03*
X138203940Y-91041880D03*
X138203940Y-93541880D03*
X138203940Y-96041880D03*
X138203940Y-98541880D03*
X138203940Y-101041880D03*
X138203940Y-103541880D03*
X138203940Y-106041880D03*
X138203940Y-108541880D03*
X138203940Y-111041880D03*
X138203940Y-113541880D03*
X138203940Y-116041880D03*
X138203940Y-118541880D03*
X138203940Y-121041880D03*
X138203940Y-123541880D03*
X138203940Y-126041880D03*
X138203940Y-128541880D03*
X138203940Y-131041880D03*
X138203940Y-133541880D03*
X138203940Y-141241880D03*
X138203940Y-143741880D03*
X138203940Y-146241880D03*
X138203940Y-148741880D03*
M02*
