G04 #@! TF.FileFunction,Soldermask,Bot*
%FSLAX46Y46*%
G04 Gerber Fmt 4.6, Leading zero omitted, Abs format (unit mm)*
G04 Created by KiCad (PCBNEW 4.0.7-e2-6376~58~ubuntu16.04.1) date Fri Feb  2 14:31:39 2018*
%MOMM*%
%LPD*%
G01*
G04 APERTURE LIST*
%ADD10C,0.177800*%
%ADD11C,1.727200*%
G04 APERTURE END LIST*
D10*
D11*
X133093940Y-66423880D03*
X133093940Y-68963880D03*
X133093940Y-71503880D03*
X133093940Y-74043880D03*
X133093940Y-76583880D03*
X133093940Y-79123880D03*
X133093940Y-81663880D03*
X133093940Y-84203880D03*
X133093940Y-86743880D03*
X133093940Y-89283880D03*
X133093940Y-91823880D03*
X133093940Y-94363880D03*
X133093940Y-96903880D03*
X133093940Y-99443880D03*
X133093940Y-101983880D03*
X133093940Y-104523880D03*
X133093940Y-107063880D03*
X133093940Y-109603880D03*
X133093940Y-112143880D03*
X133093940Y-114683880D03*
X133093940Y-117223880D03*
X133093940Y-119763880D03*
X133093940Y-122303880D03*
X133093940Y-124843880D03*
X133093940Y-127383880D03*
X133093940Y-129923880D03*
X133093940Y-132463880D03*
X133093940Y-135003880D03*
X133093940Y-137543880D03*
X133093940Y-140083880D03*
X133093940Y-142623880D03*
X133093940Y-145163880D03*
X148333940Y-145163880D03*
X148333940Y-142623880D03*
X148333940Y-140083880D03*
X148333940Y-137543880D03*
X148333940Y-135003880D03*
X148333940Y-132463880D03*
X148333940Y-129923880D03*
X148333940Y-127383880D03*
X148333940Y-124843880D03*
X148333940Y-122303880D03*
X148333940Y-119763880D03*
X148333940Y-117223880D03*
X148333940Y-114683880D03*
X148333940Y-112143880D03*
X148333940Y-109603880D03*
X148333940Y-107063880D03*
X148333940Y-104523880D03*
X148333940Y-101983880D03*
X148333940Y-99443880D03*
X148333940Y-96903880D03*
X148333940Y-94363880D03*
X148333940Y-91823880D03*
X148333940Y-89283880D03*
X148333940Y-86743880D03*
X148333940Y-84203880D03*
X148333940Y-81663880D03*
X148333940Y-79123880D03*
X148333940Y-76583880D03*
X148333940Y-74043880D03*
X148333940Y-71503880D03*
X148333940Y-68963880D03*
X148333940Y-66423880D03*
X143203940Y-148741880D03*
X143203940Y-146241880D03*
X143203940Y-143741880D03*
X143203940Y-141241880D03*
X143203940Y-133541880D03*
X143203940Y-131041880D03*
X143203940Y-128541880D03*
X143203940Y-126041880D03*
X143203940Y-123541880D03*
X143203940Y-121041880D03*
X143203940Y-118541880D03*
X143203940Y-116041880D03*
X143203940Y-113541880D03*
X143203940Y-111041880D03*
X143203940Y-108541880D03*
X143203940Y-106041880D03*
X143203940Y-103541880D03*
X143203940Y-101041880D03*
X143203940Y-98541880D03*
X143203940Y-96041880D03*
X143203940Y-93541880D03*
X143203940Y-91041880D03*
X143203940Y-88541880D03*
X143203940Y-86041880D03*
X143203940Y-83541880D03*
X143203940Y-81041880D03*
X143203940Y-78541880D03*
X143203940Y-70841880D03*
X143203940Y-68341880D03*
X143203940Y-65841880D03*
X143203940Y-63341880D03*
X138203940Y-63341880D03*
X138203940Y-65841880D03*
X138203940Y-68341880D03*
X138203940Y-70841880D03*
X138203940Y-78541880D03*
X138203940Y-81041880D03*
X138203940Y-83541880D03*
X138203940Y-86041880D03*
X138203940Y-88541880D03*
X138203940Y-91041880D03*
X138203940Y-93541880D03*
X138203940Y-96041880D03*
X138203940Y-98541880D03*
X138203940Y-101041880D03*
X138203940Y-103541880D03*
X138203940Y-106041880D03*
X138203940Y-108541880D03*
X138203940Y-111041880D03*
X138203940Y-113541880D03*
X138203940Y-116041880D03*
X138203940Y-118541880D03*
X138203940Y-121041880D03*
X138203940Y-123541880D03*
X138203940Y-126041880D03*
X138203940Y-128541880D03*
X138203940Y-131041880D03*
X138203940Y-133541880D03*
X138203940Y-141241880D03*
X138203940Y-143741880D03*
X138203940Y-146241880D03*
X138203940Y-148741880D03*
M02*
