M48
;DRILL file {KiCad 4.0.7-e2-6376~58~ubuntu16.04.1} date Thu Feb  1 20:28:33 2018
;FORMAT={-:-/ absolute / metric / decimal}
FMAT,2
METRIC,TZ
T1C0.305
T2C1.016
%
G90
G05
M71
T1
X134.811Y-119.22
X135.052Y-119.964
X135.382Y-120.718
X135.712Y-121.491
X137.152Y-119.376
X141.127Y-122.583
X141.273Y-116.03
X141.273Y-118.595
X141.435Y-129.327
X141.457Y-121.542
X142.035Y-129.898
T2
X133.094Y-66.424
X133.094Y-68.964
X133.094Y-71.504
X133.094Y-74.044
X133.094Y-76.584
X133.094Y-79.124
X133.094Y-81.664
X133.094Y-84.204
X133.094Y-86.744
X133.094Y-89.284
X133.094Y-91.824
X133.094Y-94.364
X133.094Y-96.904
X133.094Y-99.444
X133.094Y-101.984
X133.094Y-104.524
X133.094Y-107.064
X133.094Y-109.604
X133.094Y-112.144
X133.094Y-114.684
X133.094Y-117.224
X133.094Y-119.764
X133.094Y-122.304
X133.094Y-124.844
X133.094Y-127.384
X133.094Y-129.924
X133.094Y-132.464
X133.094Y-135.004
X133.094Y-137.544
X133.094Y-140.084
X133.094Y-142.624
X133.094Y-145.164
X138.204Y-63.342
X138.204Y-65.842
X138.204Y-68.342
X138.204Y-70.842
X138.204Y-78.542
X138.204Y-81.042
X138.204Y-83.542
X138.204Y-86.042
X138.204Y-88.542
X138.204Y-91.042
X138.204Y-93.542
X138.204Y-96.042
X138.204Y-98.542
X138.204Y-101.042
X138.204Y-103.542
X138.204Y-106.042
X138.204Y-108.542
X138.204Y-111.042
X138.204Y-113.542
X138.204Y-116.042
X138.204Y-118.542
X138.204Y-121.042
X138.204Y-123.542
X138.204Y-126.042
X138.204Y-128.542
X138.204Y-131.042
X138.204Y-133.542
X138.204Y-141.242
X138.204Y-143.742
X138.204Y-146.242
X138.204Y-148.742
X143.204Y-63.342
X143.204Y-65.842
X143.204Y-68.342
X143.204Y-70.842
X143.204Y-78.542
X143.204Y-81.042
X143.204Y-83.542
X143.204Y-86.042
X143.204Y-88.542
X143.204Y-91.042
X143.204Y-93.542
X143.204Y-96.042
X143.204Y-98.542
X143.204Y-101.042
X143.204Y-103.542
X143.204Y-106.042
X143.204Y-108.542
X143.204Y-111.042
X143.204Y-113.542
X143.204Y-116.042
X143.204Y-118.542
X143.204Y-121.042
X143.204Y-123.542
X143.204Y-126.042
X143.204Y-128.542
X143.204Y-131.042
X143.204Y-133.542
X143.204Y-141.242
X143.204Y-143.742
X143.204Y-146.242
X143.204Y-148.742
X148.334Y-66.424
X148.334Y-68.964
X148.334Y-71.504
X148.334Y-74.044
X148.334Y-76.584
X148.334Y-79.124
X148.334Y-81.664
X148.334Y-84.204
X148.334Y-86.744
X148.334Y-89.284
X148.334Y-91.824
X148.334Y-94.364
X148.334Y-96.904
X148.334Y-99.444
X148.334Y-101.984
X148.334Y-104.524
X148.334Y-107.064
X148.334Y-109.604
X148.334Y-112.144
X148.334Y-114.684
X148.334Y-117.224
X148.334Y-119.764
X148.334Y-122.304
X148.334Y-124.844
X148.334Y-127.384
X148.334Y-129.924
X148.334Y-132.464
X148.334Y-135.004
X148.334Y-137.544
X148.334Y-140.084
X148.334Y-142.624
X148.334Y-145.164
T0
M30
